<svg width="80" height="80" viewBox="0 0 80 80" fill="none" xmlns="http://www.w3.org/2000/svg">
<path d="M12.3337 36.6667C11.0559 36.6667 10.097 36.1244 9.45701 35.04C8.81701 33.9556 8.80368 32.8589 9.41701 31.75L20.417 11.9167C21.0281 10.8056 22.0003 10.25 23.3337 10.25C24.667 10.25 25.6392 10.8056 26.2503 11.9167L37.2503 31.75C37.8615 32.8611 37.847 33.9589 37.207 35.0433C36.567 36.1278 35.6092 36.6689 34.3337 36.6667H12.3337Z" fill="url(#paint0_linear_452_13792)"/>
<path d="M42.9567 68.7067C43.5967 69.3467 44.3889 69.6667 45.3333 69.6667H65.3333C66.2756 69.6689 67.0667 69.35 67.7067 68.71C68.3467 68.07 68.6667 67.2778 68.6667 66.3333V46.3333C68.6689 45.3911 68.35 44.6 67.71 43.96C67.07 43.32 66.2778 43 65.3333 43H45.3333C44.3911 42.9978 43.6 43.3167 42.96 43.9567C42.32 44.5967 42 45.3889 42 46.3333V66.3333C41.9978 67.2756 42.3167 68.0667 42.9567 68.7067Z" fill="url(#paint1_linear_452_13792)"/>
<path d="M13.9167 66.083C16.5278 68.6941 19.6667 69.9997 23.3333 69.9997C27 69.9997 30.1389 68.6941 32.75 66.083C35.3611 63.4719 36.6667 60.333 36.6667 56.6663C36.6667 52.9997 35.3611 49.8608 32.75 47.2497C30.1389 44.6386 27 43.333 23.3333 43.333C19.6667 43.333 16.5278 44.6386 13.9167 47.2497C11.3056 49.8608 10 52.9997 10 56.6663C10 60.333 11.3056 63.4719 13.9167 66.083Z" fill="#017393"/>
<path d="M45.6667 15.3333L52 21.6667L45.6667 28C45.0556 28.6111 44.75 29.3889 44.75 30.3333C44.75 31.2778 45.0556 32.0556 45.6667 32.6667C46.2778 33.2778 47.0556 33.5833 48 33.5833C48.9444 33.5833 49.7222 33.2778 50.3333 32.6667L56.6667 26.3333L63 32.6667C63.6111 33.2778 64.3889 33.5833 65.3333 33.5833C66.2778 33.5833 67.0556 33.2778 67.6667 32.6667C68.2778 32.0556 68.5833 31.2778 68.5833 30.3333C68.5833 29.3889 68.2778 28.6111 67.6667 28L61.3333 21.6667L67.6667 15.3333C68.2778 14.7222 68.5833 13.9444 68.5833 13C68.5833 12.0556 68.2778 11.2778 67.6667 10.6667C67.0556 10.0556 66.2778 9.75 65.3333 9.75C64.3889 9.75 63.6111 10.0556 63 10.6667L56.6667 17L50.3333 10.6667C49.7222 10.0556 48.9444 9.75 48 9.75C47.0556 9.75 46.2778 10.0556 45.6667 10.6667C45.0556 11.2778 44.75 12.0556 44.75 13C44.75 13.9444 45.0556 14.7222 45.6667 15.3333Z" fill="#017393"/>
<defs>
<linearGradient id="paint0_linear_452_13792" x1="8.70391" y1="-6.42551" x2="20.4762" y2="37.5647" gradientUnits="userSpaceOnUse">
<stop stop-color="#019AFF" stop-opacity="0.65"/>
<stop offset="1" stop-color="#0151FF"/>
</linearGradient>
<linearGradient id="paint1_linear_452_13792" x1="54.8693" y1="43" x2="54.8693" y2="83.4809" gradientUnits="userSpaceOnUse">
<stop stop-color="#01D1FF" stop-opacity="0.69"/>
<stop offset="1" stop-color="#0197FF" stop-opacity="0"/>
</linearGradient>
</defs>
</svg>
