<svg width="80" height="80" viewBox="0 0 80 80" fill="none" xmlns="http://www.w3.org/2000/svg">
<path d="M16.3067 32.0468C16.3067 30.7068 17.3833 29.6201 18.7133 29.6201H31.5667C32.9 29.6201 33.9767 30.7068 33.9767 32.0468C33.978 32.3646 33.9167 32.6795 33.7963 32.9736C33.6759 33.2678 33.4987 33.5353 33.2749 33.7609C33.0511 33.9866 32.7851 34.1659 32.492 34.2888C32.1989 34.4116 31.8845 34.4755 31.5667 34.4768H18.7133C18.0721 34.4733 17.4585 34.2154 17.0072 33.7597C16.556 33.3041 16.304 32.688 16.3067 32.0468Z" fill="black"/>
<path fill-rule="evenodd" clip-rule="evenodd" d="M70.627 33.3468C70.4203 33.3335 70.1937 33.3335 69.9603 33.3335H60.717C53.147 33.3335 46.667 39.1202 46.667 46.6668C46.667 54.2135 53.147 60.0002 60.717 60.0002H69.9603C70.1937 60.0002 70.4203 60.0002 70.627 59.9868C73.7037 59.8002 76.4237 57.4635 76.6537 54.1968C76.667 53.9835 76.667 53.7535 76.667 53.5402V39.7935C76.667 39.5802 76.667 39.3502 76.6537 39.1368C76.4237 35.8702 73.7037 33.5368 70.627 33.3468ZM59.9037 50.2235C61.8503 50.2235 63.4303 48.6302 63.4303 46.6668C63.4303 44.7002 61.8503 43.1102 59.9037 43.1102C57.9537 43.1102 56.3703 44.7035 56.3703 46.6668C56.3703 48.6335 57.9537 50.2235 59.9037 50.2235Z" fill="url(#paint0_linear_452_13794)"/>
<path d="M70.467 33.3403C70.467 29.4037 70.3203 25.1803 67.807 22.157C67.5613 21.8608 67.3021 21.5761 67.0303 21.3037C64.5337 18.8103 61.3703 17.7037 57.4637 17.177C53.6637 16.667 48.8137 16.667 42.687 16.667H35.647C29.5203 16.667 24.667 16.667 20.867 17.177C16.9603 17.7037 13.797 18.8103 11.3003 21.3037C8.80699 23.8003 7.70033 26.9637 7.17366 30.8703C6.66699 34.6703 6.66699 39.5203 6.66699 45.647V46.0203C6.66699 52.147 6.66699 57.0003 7.17699 60.797C7.70366 64.7037 8.81033 67.867 11.3037 70.3637C13.8003 72.857 16.9637 73.9637 20.8703 74.4903C24.6703 75.0003 29.5203 75.0003 35.647 75.0003H42.687C48.8137 75.0003 53.667 75.0003 57.4637 74.4903C61.3703 73.9637 64.5337 72.857 67.0303 70.3637C67.6944 69.6975 68.2825 68.9597 68.7837 68.1637C70.2837 65.7637 70.4637 62.8237 70.4637 59.997L69.9637 60.0003H60.717C53.147 60.0003 46.667 54.2137 46.667 46.667C46.667 39.1203 53.147 33.3337 60.717 33.3337H69.9603C70.1337 33.3337 70.307 33.3337 70.467 33.3403Z" fill="url(#paint1_linear_452_13794)"/>
<path d="M33.6706 8.57343L26.6673 13.3068L20.8906 17.1734C24.684 16.6668 29.5306 16.6668 35.644 16.6668H42.6873C48.814 16.6668 53.6673 16.6668 57.464 17.1768C58.2306 17.2768 58.964 17.4034 59.6706 17.5568L53.334 13.3334L46.2906 8.57343C44.4211 7.32992 42.2259 6.6665 39.9806 6.6665C37.7353 6.6665 35.5401 7.32992 33.6706 8.57343Z" fill="url(#paint2_linear_452_13794)"/>
<defs>
<linearGradient id="paint0_linear_452_13794" x1="46.3925" y1="16.5002" x2="57.9317" y2="61.1015" gradientUnits="userSpaceOnUse">
<stop stop-color="#019AFF" stop-opacity="0.65"/>
<stop offset="1" stop-color="#0151FF"/>
</linearGradient>
<linearGradient id="paint1_linear_452_13794" x1="37.4569" y1="16.667" x2="37.4569" y2="105.219" gradientUnits="userSpaceOnUse">
<stop stop-color="#01D1FF" stop-opacity="0.69"/>
<stop offset="1" stop-color="#0197FF" stop-opacity="0"/>
</linearGradient>
<linearGradient id="paint2_linear_452_13794" x1="20.5358" y1="-0.207967" x2="22.1137" y2="19.0967" gradientUnits="userSpaceOnUse">
<stop stop-color="#019AFF" stop-opacity="0.65"/>
<stop offset="1" stop-color="#0151FF"/>
</linearGradient>
</defs>
</svg>
