<svg width="28" height="30" viewBox="0 0 28 30" fill="none" xmlns="http://www.w3.org/2000/svg">
<path d="M10.1625 0.141113C11.7688 1.90736 11.4625 4.53736 9.23751 5.24611C6.13751 6.23111 3.65938 4.18674 1.34063 2.72611C1.94438 4.97736 3.45001 8.16236 6.25001 9.97486C4.59376 11.0499 2.41688 11.4561 0.146881 11.7436C2.69001 13.0061 5.26876 14.1624 8.25626 14.3811C5.83126 16.6499 3.61626 18.2436 0.284381 19.1874C3.01438 20.0249 5.89376 20.2124 8.58126 19.4874C6.20626 22.2249 4.89376 25.0436 4.07813 27.9061C6.26251 26.8936 8.11251 25.1561 11.425 25.4811C11.2875 27.0749 11.6688 28.5499 12.8813 29.8561C13.4313 27.8686 14.6938 26.0561 16.9875 24.4874C18.6625 26.6936 21.4563 28.0374 24.6188 29.0999C23.1938 26.9999 21.4313 24.9436 22.0063 22.5124C22.4 20.8936 24.225 19.4624 26.9938 19.7186C25.85 18.1124 22.7563 16.4624 19.5938 15.3061C23.2875 14.3874 25.9313 12.0561 27.85 9.70611C24.8938 9.98736 21.0375 11.1374 19.0063 9.07486C21.3188 6.72486 23.5313 3.92486 23.9063 1.13486C21.4 2.81674 18.875 4.37799 16.1 3.97861C14.975 2.53486 13.5375 1.08799 10.1625 0.141113ZM17.3125 4.70236L17.9063 7.76236L17.2375 7.89361C17.3625 8.96861 17.3 10.3999 16.9625 11.7561C16.7688 12.5561 16.4688 13.3311 16.0188 13.9624C15.9125 14.1124 15.7875 14.2561 15.6625 14.3936C15.8313 14.4624 15.9938 14.5499 16.15 14.6499C16.8063 15.0624 17.3688 15.6624 17.85 16.3311C18.675 17.4561 19.2688 18.7561 19.5625 19.7936L20.225 19.6624L20.8313 22.7186L10.725 24.7374L10.2375 22.2249L10.1313 21.6749L10.8 21.5436C10.675 20.4686 10.7375 19.0374 11.075 17.6811C11.2688 16.8811 11.5688 16.1061 12.0188 15.4749C12.125 15.3249 12.2438 15.1811 12.3688 15.0499C12.2 14.9749 12.0438 14.8874 11.8875 14.7874C11.2313 14.3749 10.6688 13.7749 10.1813 13.1061C9.3625 11.9811 8.76876 10.6811 8.47501 9.64361L7.80626 9.77486L7.31876 7.26861L7.20626 6.71861L17.3125 4.70236ZM16.425 6.02486L8.53126 7.60611L8.69376 8.44986L16.5938 6.87486L16.425 6.02486ZM16.1188 8.11236L9.59376 9.41861C9.86251 10.2936 10.3875 11.4811 11.0938 12.4436C11.5188 13.0311 12.0063 13.5311 12.4875 13.8374C12.7813 14.0186 13.0625 14.1374 13.3438 14.1811L13.6 15.4749C13.35 15.6249 13.1375 15.8374 12.9375 16.1249C12.6 16.5936 12.3375 17.2436 12.1625 17.9499C11.875 19.1124 11.8375 20.4124 11.9188 21.3249L18.4438 20.0186C18.175 19.1436 17.65 17.9561 16.9438 16.9936C16.5188 16.4061 16.0313 15.9061 15.55 15.5999C15.2563 15.4124 14.975 15.2999 14.6938 15.2561L14.4375 13.9624C14.6875 13.8124 14.9 13.5999 15.1 13.3124C15.4375 12.8436 15.6938 12.1936 15.875 11.4874C16.1625 10.3249 16.1938 9.02486 16.1188 8.11236ZM19.3438 20.9874L11.4438 22.5624L11.6125 23.4124L19.5063 21.8311L19.3438 20.9874Z" fill="black"/>
</svg>
