<svg width="54" height="54" viewBox="0 0 54 54" fill="none" xmlns="http://www.w3.org/2000/svg">
    <path fill-rule="evenodd" clip-rule="evenodd"
        d="M22.5014 2.9063C22.552 1.28671 23.8796 0 25.5 0H30C31.6203 0 32.9479 1.28671 32.9985 2.9063L33.0249 3.75H34.5C36.1568 3.75 37.5 5.09315 37.5 6.75V8.56954C40.7701 7.82953 44.2997 8.32383 47.2955 10.8203C53.5192 16.0067 52.9465 26.8786 45.5604 32.8251C43.7779 34.2602 42.3776 35.4499 41.4133 36.6757C41.1933 36.9554 41.0049 37.226 40.8462 37.4909L43.8867 37.9021C45.3746 38.1033 46.4846 39.3735 46.4846 40.875V46.5C46.4846 48.1569 45.1414 49.5 43.4846 49.5H12.0154C10.3585 49.5 9.01537 48.1569 9.01537 46.5V40.875C9.01537 39.3735 10.1254 38.1033 11.6133 37.9021L14.6537 37.4909C14.495 37.226 14.3066 36.9554 14.0866 36.6757C13.1223 35.4499 11.722 34.2602 9.93958 32.8251C2.55343 26.8786 1.98078 16.0067 8.20441 10.8203C11.2002 8.32384 14.7298 7.82953 18 8.56954V6.75C18 5.09315 19.3431 3.75 21 3.75H22.4751L22.5014 2.9063Z"
        fill="#F4F7FA" />
    <path fill-rule="evenodd" clip-rule="evenodd"
        d="M25.5001 3H30.0001L30.1173 6.75H34.5001V11.25H30.2579L30.464 16.3447C30.5462 16.2479 30.6309 16.1529 30.7182 16.0601C34.8155 11.7053 40.8906 9.38791 45.3751 13.125C49.8751 16.875 49.8751 25.5 43.6791 30.4884C40.1693 33.3141 37.0256 36.0382 37.1805 40.0224L43.4847 40.875V46.5H12.0155V40.875L18.3197 40.0224C18.4746 36.0382 15.3308 33.3141 11.821 30.4884C5.62509 25.5 5.62509 16.875 10.1251 13.125C14.6096 9.38791 20.6846 11.7053 24.782 16.0601C24.8693 16.1529 24.954 16.2479 25.0362 16.3447L25.2423 11.25H21.0001V6.75H25.3829L25.5001 3ZM21.2611 20.2299C24.0111 24.7343 24.3751 30 24.3751 32.2899C22.9967 32.2924 17.8005 30.0064 15.0493 26.2535C13.0687 23.5517 12.5522 19.5431 14.2501 17.9869C15.9479 16.4306 19.5424 17.4146 21.2611 20.2299ZM34.2391 20.2299C31.4891 24.7343 31.1251 30 31.1251 32.2899C32.5035 32.2924 37.6997 30.0064 40.4509 26.2535C42.4315 23.5517 42.9479 19.5431 41.2501 17.9869C39.5523 16.4306 35.9578 17.4146 34.2391 20.2299Z"
        fill="currentColor" />
</svg>