<svg width="54" height="54" viewBox="0 0 54 54" fill="none" xmlns="http://www.w3.org/2000/svg">
<path d="M22.2674 0.380269C23.2549 0.269228 24.2333 0.654389 24.8801 1.4088L31.0008 8.54765C38.0298 10.2846 42.1024 15.5774 44.3549 22.1848C46.6759 28.9931 47.25 37.6365 47.25 46.5C47.25 48.1569 45.9069 49.5 44.25 49.5H16.2787C14.686 49.5 13.3709 48.2555 13.2832 46.6652C13.205 45.2461 13.5315 42.7837 14.5264 40.2686L14.5447 40.2226C11.7193 41.7392 8.58362 41.3759 6.25585 39.7186C3.42695 37.7044 1.85402 33.7616 3.65112 29.8679C4.94703 27.0601 6.34374 25.5732 7.40034 24.4487C8.3873 23.3983 8.7986 22.9363 9.08957 21.7724C10.8538 14.7157 14.4832 10.6506 18.3809 8.79535C18.3245 7.99143 18.3704 7.21691 18.469 6.51371C18.7144 4.76335 19.3255 3.14583 19.9483 1.96336C20.4114 1.08414 21.2799 0.49131 22.2674 0.380269Z" fill="#F4F7FA"/>
<path fill-rule="evenodd" clip-rule="evenodd" d="M29.3781 11.2639L22.6027 3.36145C21.6219 5.2234 20.6711 8.50959 22.0381 10.8819C21.3746 10.941 20.7405 11.0532 20.2501 11.25C17.121 12.5057 13.6876 15.75 12.0001 22.5C11.5114 24.4546 10.632 25.3905 9.58671 26.503C8.60074 27.5523 7.46723 28.7587 6.37507 31.125C4.12507 36 10.1973 40.875 14.6251 36.4473C17.1144 33.9579 19.2903 32.9303 21.1172 32.0675C23.7466 30.8257 25.6528 29.9254 26.7296 25.5C27.2419 27.5642 27.037 32.4358 22.1189 35.4083C17.2009 38.3807 16.1763 44.6422 16.2788 46.5H44.2501C44.2501 28.8624 41.9149 13.6236 29.3781 11.2639Z" fill="#34364C"/>
<circle cx="21" cy="20.25" r="2.25" fill="#F4F7FA"/>
</svg>
